<svg height="511pt" viewBox="-53 0 511 511.9986" width="511pt" xmlns="http://www.w3.org/2000/svg"><path d="m215.117188 454.332031h10.210937v-51.492187c0-8.460938 6.859375-15.320313 15.316406-15.320313 8.460938 0 15.320313 6.859375 15.320313 15.320313v51.492187h33.699218c18.582032 0 33.699219 15.117188 33.699219 33.703125 0 8.457032-6.859375 15.316406-15.316406 15.316406-8.460937 0-15.320313-6.859374-15.320313-15.316406 0-1.691406-1.375-3.066406-3.0625-3.066406h-74.546874c-1.6875 0-3.0625 1.375-3.0625 3.066406 0 8.457032-6.859376 15.316406-15.320313 15.316406-8.457031 0-15.316406-6.859374-15.316406-15.316406 0-18.585937 15.117187-33.703125 33.699219-33.703125zm0 0" fill="#3d4851"/><path d="m46.308594 487.082031 100.011718-131.464843c11.554688 15.984374 18.199219 35.753906 17.726563 57.105468-1.109375 49.996094-41.925781 90.738282-91.921875 91.757813-6.8125.136719-13.464844-.445313-19.886719-1.6875-7.179687-1.386719-10.355469-9.890625-5.929687-15.710938zm0 0" fill="#ff8f71"/><path d="m146.316406 355.617188-100.007812 131.464843c-4.425782 5.820313-1.246094 14.324219 5.929687 15.710938 3.601563.695312 7.28125 1.179687 11.015625 1.449219l95.339844-125.324219c-3-8.382813-7.152344-16.214844-12.277344-23.300781zm0 0" fill="#fa695b"/><path d="m108.667969 292.390625v-178.683594c0-29.328125 11.890625-55.875 31.105469-75.101562 19.226562-19.214844 45.777343-31.105469 75.105468-31.105469 46.824219 0 86.578125 30.308594 100.691406 72.375l-37.179687 53.90625 42.695313 62.132812c26.800781 42.222657 51.355468 97.070313 34.773437 147.578126-16.011719 48.777343-67.765625 75.183593-116.867187 75.183593h-4.042969c-69.742188-.003906-126.28125-56.539062-126.28125-126.285156zm0 0" fill="#fa695b"/><path d="m138.667969 292.390625v-178.683594c0-29.328125 11.890625-55.875 31.105469-75.101562 15.878906-15.867188 36.75-26.734375 60.058593-30.039063-4.890625-.6875-9.875-1.066406-14.953125-1.066406-29.328125 0-55.878906 11.890625-75.105468 31.105469-19.214844 19.226562-31.105469 45.773437-31.105469 75.101562v178.683594c0 69.746094 56.539062 126.28125 126.28125 126.28125h4.042969c4.386718 0 8.796874-.21875 13.195312-.636719-63.75-6.398437-113.519531-60.207031-113.519531-125.644531zm0 0" fill="#f75747"/><path d="m32.847656 348.714844 33.390625 34.09375 53.988281 10.304687c11.871094-7.042969 22.425782-15.03125 31.832032-23.628906l-46.925782-43.285156-58.6875-10.378907zm0 0" fill="#f8d070"/><path d="m383.621094 156.882812s-3.167969 39.027344-62.53125 39.027344l-25.523438-24.246094 25.523438-22.730468 33.070312-15.152344zm0 0" fill="#3d4851"/><path d="m315.609375 79.960938s77.074219-21.578126 81.777344 71.929687c.21875 4.398437-3.945313 7.722656-8.179688 6.511719-12.449219-3.570313-37.632812-9.46875-68.117187-9.46875l-25.523438-29.5zm0 0" fill="#d2d1d7"/><path d="m188.8125 114.585938c0 55.566406 26.125 81.324218 132.273438 81.324218v-82.203125c0-11.800781-1.921876-23.144531-5.476563-33.742187 0 0 0-.007813-.011719-.019532-.007812-.007812-.007812-.039062-.03125-.070312-.757812-1.839844-13.578125-31.632812-54.683594-31.632812-42.429687 0-72.070312 33.683593-72.070312 66.34375zm0 0" fill="#e8e8e8"/><path d="m252.390625 140.796875h17.898437c4.140626 0 7.5-3.355469 7.5-7.5 0-4.140625-3.359374-7.5-7.5-7.5h-17.898437c-4.140625 0-7.5 3.359375-7.5 7.5 0 4.144531 3.359375 7.5 7.5 7.5zm0 0" fill="#ff8997"/><path d="m46.445312 315.820312-13.59375 32.894532 19.875 20.292968 20.058594-48.53125zm0 0" fill="#ffb25a"/><path d="m19.90625 422.21875c40.949219-2.402344 73.871094-13.40625 100.320312-29.105469l-87.378906-44.398437-23.992187 58.039062c-3.160157 7.644532 2.789062 15.949219 11.050781 15.464844zm0 0" fill="#ff8f71"/><path d="m60.046875 282.914062 51.621094 43.285157 65.222656 16.097656c10.609375-13.871094 19.003906-28.257813 25.621094-42.046875 4.625-9.648438 6.789062-19.75 6.789062-29.660156 0-29.996094-19.800781-58.230469-51.039062-66.769532-33.640625-9.191406-68.859375 8.082032-82.183594 40.308594zm0 0" fill="#ff8f71"/><path d="m46.445312 315.820312 105.613282 53.664063c9.394531-8.585937 17.628906-17.761719 24.832031-27.1875l-116.84375-59.382813zm0 0" fill="#76e5e6"/><path d="m19.90625 422.21875c2.039062-.121094 9.476562-.742188 11.203125-.914062l25.097656-60.722657-23.359375-11.867187s-23.980468 58.011718-23.992187 58.039062c-3.117188 7.542969 2.964843 15.9375 11.050781 15.464844zm0 0" fill="#fa695b"/><path d="m83.609375 230.644531c-3.914063 5.695313-6.992187 11.972657-9.554687 18.378907l-14.007813 33.890624 20.992187 17.601563 41.527344-96.890625c-12.433594 3.25-23.824218 9.910156-32.753906 19.320312-2.28125 2.402344-4.335938 4.984376-6.203125 7.699219zm0 0" fill="#fa695b"/><path d="m60.046875 282.914062-13.601563 32.90625 23.359376 11.867188 13.601562-32.902344zm0 0" fill="#00bcb9"/><path d="m265.957031 111.964844v-13.136719c0-4.144531 3.359375-7.5 7.5-7.5 4.144531 0 7.5 3.355469 7.5 7.5v13.140625c0 4.140625-3.355469 7.5-7.5 7.5-4.140625 0-7.5-3.359375-7.5-7.503906zm0 0"/><path d="m252.386719 125.796875h17.894531c4.144531 0 7.5 3.359375 7.5 7.5 0 4.144531-3.355469 7.5-7.5 7.5h-17.894531c-4.140625 0-7.5-3.355469-7.5-7.5 0-4.140625 3.359375-7.5 7.5-7.5zm0 0"/><path d="m101.164062 113.707031v90.804688c-13.976562 8.210937-25.4375 20.835937-32.019531 36.753906l-67.222656 162.621094c-2.390625 5.777343-1.742187 12.328125 1.730469 17.519531 3.675781 5.496094 10.097656 8.683594 16.691406 8.300781 25.644531-1.507812 49.503906-6.433593 71.335938-14.660156l-51.34375 67.492187c-7.65625 10.0625-1.964844 25.210938 10.476562 27.617188 7.0625 1.363281 14.269531 1.96875 21.460938 1.820312 26.121093-.53125 50.785156-11.082031 69.4375-29.703124 18.65625-18.621094 29.25-43.265626 29.832031-69.386719.019531-.914063.003906-1.832031 0-2.746094 14.335937 7.710937 30.03125 12.804687 46.28125 14.917969v21.773437h-2.710938c-22.714843 0-41.199219 18.480469-41.199219 41.199219 0 12.582031 10.234376 22.820312 22.816407 22.820312 11.066406 0 20.316406-7.917968 22.386719-18.382812h66.539062c2.070312 10.464844 11.320312 18.382812 22.382812 18.382812 12.585938 0 22.820313-10.238281 22.820313-22.820312 0-22.71875-18.480469-41.199219-41.203125-41.199219h-26.195312v-22.6875c39.929687-6.617187 74.601562-29.125 92.03125-61.066406 1.984374-3.636719.644531-8.191406-2.992188-10.175781s-8.191406-.644532-10.175781 2.992187c-15.972657 29.269531-48.847657 49.507813-86.46875 54.21875-9.738281 1.210938-19.707031 1.457031-29.492188.742188-25.21875-1.84375-49.289062-11.761719-68.496093-28.117188-1.484376-1.484375-3.160157-2.777343-4.683594-4.222656.074218.070313 3.589844-3.1875 3.925781-3.496094 13.960937-12.75 26.113281-27.4375 36.375-43.304687 11.796875-18.234375 23.3125-38.8125 23.3125-61.128906 0-42.273438-35.898437-77.171876-77.640625-76.703126-7.792969.089844-15.542969 1.355469-22.992188 3.800782v-83.980469c0-26.355469 10.265626-51.144531 28.910157-69.796875 18.652343-18.640625 43.441406-28.90625 69.800781-28.90625 27.066406 0 52.160156 10.976562 70.292969 29.351562-.113281-.035156-.230469-.070312-.347657-.109374-7.6875-2.347657-15.90625-3.5-23.9375-3.5-21.242187 0-42.023437 8.144531-57.207031 23.078124-17.253906 16.96875-23.765625 38.855469-21.933593 62.574219 2.027343 26.277344 11.265624 43.78125 29.199218 55.90625 14.457032 9.773438 31.996094 14.199219 48.890625 17.015625 18.699219 3.117188 37.792969 3.933594 56.71875 4.078125.125 0 .25.003907.375.003907 30.195313 48.660156 41.890625 91.214843 34.761719 126.539062-.820312 4.058594 1.808594 8.015625 5.867188 8.832031 4.0625.820313 8.015624-1.804687 8.835937-5.867187 4.574219-22.664063 2.425781-47.773438-6.386719-74.636719-5.8125-17.703125-14.339844-35.964844-25.933594-55.519531 16.125-1.714844 34.167969-7.183594 46.21875-21.441406 4.621094-5.46875 7.273438-10.949219 8.796876-15.28125.628906.085937 1.265624.132812 1.898437.132812 7.851563 0 14.28125-6.8125 13.886719-14.640625-1.527344-30.378906-10.585938-52.722656-26.925782-66.40625-11.558593-9.679687-26.765624-14.796875-43.984374-14.796875-5.355469 0-10.035157.5-13.5625 1.046875-17.1875-42.9375-58.789063-71.359375-105.523438-71.359375-30.367188 0-58.917969 11.828125-80.40625 33.300781-21.476562 21.488281-33.304688 50.042969-33.304688 80.40625zm288.644532 37.070313c-1.316406-.367188-4.394532-1.171875-4.429688-1.183594-18.613281-4.617188-37.621094-7.457031-56.796875-8.042969v-27.839843c0-9.28125-1.140625-18.554688-3.371093-27.5625-.023438-.101563-.042969-.203126-.070313-.304688 2.5-.300781 5.503906-.535156 8.820313-.535156 42.742187 0 54.03125 35.242187 55.847656 65.46875zm-61.226563 37.398437v-31.617187c3.859375.121094 7.71875.347656 11.570313.65625 10.761718.867187 34.234375 5.167968 34.308594 5.183594-3.507813 8.699218-14.140626 23.726562-45.878907 25.777343zm-67.703125-132.433593c14.84375 0 30.136719 5.117187 40.40625 16.167968 10.476563 11.265625 12.296875 27.179688 12.296875 41.796875v74.65625c-8.113281-.097656-16.203125-.351562-24.300781-.878906-24.289062-1.578125-52.910156-4.242187-72.859375-19.726563-15.457031-11.996093-21.457031-33.761718-20.328125-53.183593 1.960938-33.796875 31.6875-58.832031 64.785156-58.832031zm-122.203125 315.355468c-5.644531 4.585938-18.441406 13.191406-18.808593 13.421875l-77.441407-39.351562 7.851563-18.988281zm109.785157 54.773438v28.460937c0 4.144531 3.359374 7.5 7.5 7.5h33.699218c14.445313 0 26.199219 11.753907 26.199219 26.199219 0 4.3125-3.503906 7.820312-7.816406 7.820312s-7.820313-3.507812-7.820313-7.820312c0-5.824219-4.738281-10.5625-10.5625-10.5625h-74.542968c-5.824219 0-10.5625 4.742188-10.5625 10.5625 0 4.3125-3.507813 7.820312-7.820313 7.820312-4.308594 0-7.816406-3.507812-7.816406-7.820312 0-14.445312 11.753906-26.199219 26.199219-26.199219h10.210937c4.140625 0 7.5-3.355469 7.5-7.5v-28.175781c2.050781.035156 12.496094-.085938 15.632813-.285156zm-196.1875 65.75 68.664062-90.257813c7.089844-4.011719 13.921875-8.496093 20.453125-13.359375 2.832031 2.769532 5.804687 5.402344 8.871094 7.914063 1.863281 1.527343 3.753906 3.023437 5.695312 4.445312.480469 4.058594.679688 8.148438.589844 12.191407-.496094 22.238281-9.527344 43.226562-25.429687 59.101562-15.90625 15.878906-36.914063 24.871094-59.152344 25.324219-6.175782.128906-12.328125-.394531-18.304688-1.550781-1.035156-.199219-1.503906-.902344-1.71875-1.457032-.179687-.476562-.378906-1.414062.332032-2.351562zm-36.492188-82.003906 20.898438-50.542969 67.433593 34.265625c-24.945312 12.371094-53.351562 19.554687-84.648437 21.394531-1.886719.109375-2.988282-1.136719-3.339844-1.664063-.410156-.609374-.996094-1.871093-.34375-3.453124zm134.792969-199.832032c28.691406 5.058594 51.222656 31.625 51.222656 60.804688 0 21.261718-12.515625 40.847656-24.128906 57.832031-.996094 1.457031-2.007813 2.894531-3.03125 4.316406l-55.769531-28.339843c-3.613282-1.839844-8.242188-.335938-10.082032 3.289062-1.878906 3.691406-.40625 8.207031 3.285156 10.082031l53.207032 27.042969c-4.570313 5.445312-9.40625 10.664062-14.523438 15.597656l-94.730468-48.132812 7.851562-19 22.359375 11.363281c3.691406 1.875 8.207031.402344 10.082031-3.289063 1.875-3.695312.40625-8.207031-3.289062-10.085937l-23.402344-11.894531 13.382812-32.375c10.867188-26.28125 39.511719-42.152344 67.566407-37.210938zm0 0"/></svg>